<svg width="80" height="17" viewBox="0 0 80 17" fill="none" xmlns="http://www.w3.org/2000/svg">
<path d="M11.4432 16.8C11.2832 16.8 11.1792 16.72 11.1312 16.56L10.3392 13.992C10.3072 13.928 10.2672 13.896 10.2192 13.896H3.8832C3.8352 13.896 3.7952 13.928 3.7632 13.992L2.9712 16.56C2.9232 16.72 2.8192 16.8 2.6592 16.8H0.2592C0.1632 16.8 0.0912 16.776 0.0432 16.728C-0.0048 16.664 -0.0128 16.576 0.0192 16.464L5.2272 0.24C5.2752 0.0799999 5.3792 0 5.5392 0H8.5392C8.6992 0 8.8032 0.0799999 8.8512 0.24L14.0832 16.464C14.0992 16.496 14.1072 16.536 14.1072 16.584C14.1072 16.728 14.0192 16.8 13.8432 16.8H11.4432ZM4.5072 11.568C4.4912 11.664 4.5232 11.712 4.6032 11.712H9.4752C9.5712 11.712 9.6032 11.664 9.5712 11.568L7.0992 3.528C7.0832 3.464 7.0592 3.432 7.0272 3.432C6.9952 3.432 6.9712 3.464 6.9552 3.528L4.5072 11.568Z" fill="white"/>
<path d="M18.797 16.776C18.717 16.776 18.645 16.752 18.5809 16.704C18.5329 16.64 18.509 16.568 18.509 16.488V11.616C18.509 11.552 18.501 11.504 18.485 11.472L14.285 3.288C14.253 3.224 14.2369 3.176 14.2369 3.144C14.2369 3.016 14.325 2.952 14.5009 2.952H16.877C17.037 2.952 17.1489 3.024 17.2129 3.168L19.829 8.76C19.877 8.856 19.9249 8.856 19.9729 8.76L22.613 3.168C22.693 3.024 22.805 2.952 22.9489 2.952H25.349C25.461 2.952 25.533 2.984 25.565 3.048C25.613 3.096 25.613 3.176 25.565 3.288L21.341 11.472C21.309 11.536 21.2929 11.584 21.2929 11.616V16.488C21.2929 16.568 21.261 16.64 21.197 16.704C21.149 16.752 21.085 16.776 21.005 16.776H18.797Z" fill="white"/>
<path d="M37.5481 3.144C37.6281 3.016 37.7401 2.952 37.8841 2.952H40.0921C40.1721 2.952 40.2361 2.984 40.2841 3.048C40.3481 3.096 40.3801 3.16 40.3801 3.24V16.512C40.3801 16.592 40.3481 16.664 40.2841 16.728C40.2361 16.776 40.1721 16.8 40.0921 16.8H37.8841C37.8041 16.8 37.7321 16.776 37.6681 16.728C37.6201 16.664 37.5961 16.592 37.5961 16.512V7.464C37.5961 7.4 37.5801 7.368 37.5481 7.368C37.5161 7.352 37.4841 7.368 37.4521 7.416L35.1961 10.944C35.1161 11.072 35.0041 11.136 34.8601 11.136H33.8761C33.7321 11.136 33.6201 11.072 33.5401 10.944L31.2601 7.416C31.2281 7.368 31.1961 7.352 31.1641 7.368C31.1321 7.368 31.1161 7.4 31.1161 7.464V16.512C31.1161 16.592 31.0841 16.664 31.0201 16.728C30.9721 16.776 30.9081 16.8 30.8281 16.8H28.6201C28.5401 16.8 28.4681 16.776 28.4041 16.728C28.3561 16.664 28.3321 16.592 28.3321 16.512V3.24C28.3321 3.16 28.3561 3.096 28.4041 3.048C28.4681 2.984 28.5401 2.952 28.6201 2.952H30.8281C30.9721 2.952 31.0841 3.016 31.1641 3.144L34.2841 7.968C34.3321 8.064 34.3801 8.064 34.4281 7.968L37.5481 3.144Z" fill="white"/>
<path d="M52.6994 16.8C52.5394 16.8 52.4354 16.72 52.3874 16.56L51.8114 14.688C51.7794 14.624 51.7394 14.592 51.6914 14.592H46.5074C46.4594 14.592 46.4194 14.624 46.3874 14.688L45.8114 16.56C45.7634 16.72 45.6594 16.8 45.4994 16.8H43.2914C43.1954 16.8 43.1234 16.776 43.0754 16.728C43.0434 16.664 43.0434 16.576 43.0754 16.464L47.4674 3.192C47.5154 3.032 47.6194 2.952 47.7794 2.952H50.4194C50.5794 2.952 50.6834 3.032 50.7314 3.192L55.1234 16.464C55.1394 16.496 55.1474 16.536 55.1474 16.584C55.1474 16.728 55.0674 16.8 54.9074 16.8H52.6994ZM47.1314 12.264C47.1154 12.36 47.1474 12.408 47.2274 12.408H50.9714C51.0674 12.408 51.0994 12.36 51.0674 12.264L49.1714 6C49.1554 5.936 49.1314 5.904 49.0994 5.904C49.0674 5.904 49.0434 5.936 49.0274 6L47.1314 12.264Z" fill="white"/>
<path d="M66.0833 3.264C66.0833 3.184 66.1073 3.12 66.1553 3.072C66.2193 3.008 66.2913 2.976 66.3713 2.976H68.5793C68.6593 2.976 68.7233 3.008 68.7713 3.072C68.8353 3.12 68.8673 3.184 68.8673 3.264V16.512C68.8673 16.592 68.8353 16.664 68.7713 16.728C68.7233 16.776 68.6593 16.8 68.5793 16.8H66.2993C66.1393 16.8 66.0273 16.736 65.9633 16.608L60.6833 7.968C60.6513 7.92 60.6193 7.904 60.5873 7.92C60.5553 7.92 60.5393 7.952 60.5393 8.016L60.5873 16.512C60.5873 16.592 60.5553 16.664 60.4913 16.728C60.4433 16.776 60.3793 16.8 60.2993 16.8H58.0913C58.0113 16.8 57.9393 16.776 57.8753 16.728C57.8273 16.664 57.8033 16.592 57.8033 16.512V3.264C57.8033 3.184 57.8273 3.12 57.8753 3.072C57.9393 3.008 58.0113 2.976 58.0913 2.976H60.3713C60.5313 2.976 60.6433 3.04 60.7073 3.168L65.9633 11.76C65.9953 11.808 66.0273 11.832 66.0593 11.832C66.0913 11.816 66.1073 11.776 66.1073 11.712L66.0833 3.264Z" fill="white"/>
<path d="M73.2752 10.8H78.2752V15.8H73.2752V10.8Z" fill="#610F4F"/>
<path d="M72.2752 13.3355L75.8107 9.8L79.3463 13.3355L75.8107 16.8711L72.2752 13.3355Z" fill="#610F4F"/>
</svg>
