<svg width="25" height="24" viewBox="0 0 25 24" fill="none" xmlns="http://www.w3.org/2000/svg">
<path d="M11.4432 20.8C11.2832 20.8 11.1792 20.72 11.1312 20.56L10.3392 17.992C10.3072 17.928 10.2672 17.896 10.2192 17.896H3.8832C3.8352 17.896 3.7952 17.928 3.7632 17.992L2.9712 20.56C2.9232 20.72 2.8192 20.8 2.6592 20.8H0.2592C0.1632 20.8 0.0912 20.776 0.0432 20.728C-0.0048 20.664 -0.0128 20.576 0.0192 20.464L5.2272 4.24C5.2752 4.08 5.3792 4 5.5392 4H8.5392C8.6992 4 8.8032 4.08 8.8512 4.24L14.0832 20.464C14.0992 20.496 14.1072 20.536 14.1072 20.584C14.1072 20.728 14.0192 20.8 13.8432 20.8H11.4432ZM4.5072 15.568C4.4912 15.664 4.5232 15.712 4.6032 15.712H9.4752C9.5712 15.712 9.6032 15.664 9.5712 15.568L7.0992 7.528C7.0832 7.464 7.0592 7.432 7.0272 7.432C6.9952 7.432 6.9712 7.464 6.9552 7.528L4.5072 15.568Z" fill="white"/>
<path d="M18.5 14.5H23.5V19.5H18.5V14.5Z" fill="#610F4F"/>
<path d="M17.4645 17.0485L21 13.5129L24.5355 17.0485L21 20.584L17.4645 17.0485Z" fill="#610F4F"/>
</svg>
