<svg width="80" height="18" viewBox="0 0 80 18" fill="none" xmlns="http://www.w3.org/2000/svg">
<path d="M11.4432 17.6711C11.2832 17.6711 11.1792 17.5911 11.1312 17.4311L10.3392 14.8631C10.3072 14.7991 10.2672 14.7671 10.2192 14.7671H3.8832C3.8352 14.7671 3.7952 14.7991 3.7632 14.8631L2.9712 17.4311C2.9232 17.5911 2.8192 17.6711 2.6592 17.6711H0.2592C0.1632 17.6711 0.0912 17.6471 0.0432 17.5991C-0.0048 17.5351 -0.0128 17.4471 0.0192 17.3351L5.2272 1.11109C5.2752 0.951094 5.3792 0.871094 5.5392 0.871094H8.5392C8.6992 0.871094 8.8032 0.951094 8.8512 1.11109L14.0832 17.3351C14.0992 17.3671 14.1072 17.4071 14.1072 17.4551C14.1072 17.5991 14.0192 17.6711 13.8432 17.6711H11.4432ZM4.5072 12.4391C4.4912 12.5351 4.5232 12.5831 4.6032 12.5831H9.4752C9.5712 12.5831 9.6032 12.5351 9.5712 12.4391L7.0992 4.39909C7.0832 4.33509 7.0592 4.30309 7.0272 4.30309C6.9952 4.30309 6.9712 4.33509 6.9552 4.39909L4.5072 12.4391Z" fill="#1E0518"/>
<path d="M18.797 17.6471C18.717 17.6471 18.6449 17.6231 18.5809 17.5751C18.5329 17.5111 18.509 17.4391 18.509 17.3591V12.4871C18.509 12.4231 18.501 12.3751 18.485 12.3431L14.285 4.15909C14.253 4.09509 14.2369 4.04709 14.2369 4.01509C14.2369 3.88709 14.3249 3.82309 14.5009 3.82309H16.877C17.037 3.82309 17.1489 3.89509 17.2129 4.03909L19.829 9.63109C19.877 9.72709 19.925 9.72709 19.9729 9.63109L22.613 4.03909C22.693 3.89509 22.8049 3.82309 22.9489 3.82309H25.349C25.461 3.82309 25.533 3.85509 25.565 3.91909C25.613 3.96709 25.613 4.04709 25.565 4.15909L21.341 12.3431C21.3089 12.4071 21.2929 12.4551 21.2929 12.4871V17.3591C21.2929 17.4391 21.261 17.5111 21.197 17.5751C21.149 17.6231 21.085 17.6471 21.005 17.6471H18.797Z" fill="#1E0518"/>
<path d="M37.5481 4.01509C37.6281 3.88709 37.7401 3.82309 37.8841 3.82309H40.0921C40.1721 3.82309 40.2361 3.85509 40.2841 3.91909C40.3481 3.96709 40.3801 4.03109 40.3801 4.11109V17.3831C40.3801 17.4631 40.3481 17.5351 40.2841 17.5991C40.2361 17.6471 40.1721 17.6711 40.0921 17.6711H37.8841C37.8041 17.6711 37.7321 17.6471 37.6681 17.5991C37.6201 17.5351 37.5961 17.4631 37.5961 17.3831V8.33509C37.5961 8.27109 37.5801 8.23909 37.5481 8.23909C37.5161 8.22309 37.4841 8.23909 37.4521 8.28709L35.1961 11.8151C35.1161 11.9431 35.0041 12.0071 34.8601 12.0071H33.8761C33.7321 12.0071 33.6201 11.9431 33.5401 11.8151L31.2601 8.28709C31.2281 8.23909 31.1961 8.22309 31.1641 8.23909C31.1321 8.23909 31.1161 8.27109 31.1161 8.33509V17.3831C31.1161 17.4631 31.0841 17.5351 31.0201 17.5991C30.9721 17.6471 30.9081 17.6711 30.8281 17.6711H28.6201C28.5401 17.6711 28.4681 17.6471 28.4041 17.5991C28.3561 17.5351 28.3321 17.4631 28.3321 17.3831V4.11109C28.3321 4.03109 28.3561 3.96709 28.4041 3.91909C28.4681 3.85509 28.5401 3.82309 28.6201 3.82309H30.8281C30.9721 3.82309 31.0841 3.88709 31.1641 4.01509L34.2841 8.83909C34.3321 8.93509 34.3801 8.93509 34.4281 8.83909L37.5481 4.01509Z" fill="#1E0518"/>
<path d="M52.6994 17.6711C52.5394 17.6711 52.4354 17.5911 52.3874 17.4311L51.8114 15.5591C51.7794 15.4951 51.7394 15.4631 51.6914 15.4631H46.5074C46.4594 15.4631 46.4194 15.4951 46.3874 15.5591L45.8114 17.4311C45.7634 17.5911 45.6594 17.6711 45.4994 17.6711H43.2914C43.1954 17.6711 43.1234 17.6471 43.0754 17.5991C43.0434 17.5351 43.0434 17.4471 43.0754 17.3351L47.4674 4.06309C47.5154 3.90309 47.6194 3.82309 47.7794 3.82309H50.4194C50.5794 3.82309 50.6834 3.90309 50.7314 4.06309L55.1234 17.3351C55.1394 17.3671 55.1474 17.4071 55.1474 17.4551C55.1474 17.5991 55.0674 17.6711 54.9074 17.6711H52.6994ZM47.1314 13.1351C47.1154 13.2311 47.1474 13.2791 47.2274 13.2791H50.9714C51.0674 13.2791 51.0994 13.2311 51.0674 13.1351L49.1714 6.87109C49.1554 6.80709 49.1314 6.77509 49.0994 6.77509C49.0674 6.77509 49.0434 6.80709 49.0274 6.87109L47.1314 13.1351Z" fill="#1E0518"/>
<path d="M66.0833 4.13509C66.0833 4.05509 66.1073 3.99109 66.1553 3.94309C66.2193 3.87909 66.2913 3.84709 66.3713 3.84709H68.5793C68.6593 3.84709 68.7233 3.87909 68.7713 3.94309C68.8353 3.99109 68.8673 4.05509 68.8673 4.13509V17.3831C68.8673 17.4631 68.8353 17.5351 68.7713 17.5991C68.7233 17.6471 68.6593 17.6711 68.5793 17.6711H66.2993C66.1393 17.6711 66.0273 17.6071 65.9633 17.4791L60.6833 8.83909C60.6513 8.79109 60.6193 8.77509 60.5873 8.79109C60.5553 8.79109 60.5393 8.82309 60.5393 8.88709L60.5873 17.3831C60.5873 17.4631 60.5553 17.5351 60.4913 17.5991C60.4433 17.6471 60.3793 17.6711 60.2993 17.6711H58.0913C58.0113 17.6711 57.9393 17.6471 57.8753 17.5991C57.8273 17.5351 57.8033 17.4631 57.8033 17.3831V4.13509C57.8033 4.05509 57.8273 3.99109 57.8753 3.94309C57.9393 3.87909 58.0113 3.84709 58.0913 3.84709H60.3713C60.5313 3.84709 60.6433 3.91109 60.7073 4.03909L65.9633 12.6311C65.9953 12.6791 66.0273 12.7031 66.0593 12.7031C66.0913 12.6871 66.1073 12.6471 66.1073 12.5831L66.0833 4.13509Z" fill="#1E0518"/>
<path d="M73.2752 11.6711H78.2752V16.6711H73.2752V11.6711Z" fill="#610F4F"/>
<path d="M72.2752 14.2066L75.8107 10.6711L79.3463 14.2066L75.8107 17.7422L72.2752 14.2066Z" fill="#610F4F"/>
</svg>
