<svg width="24" height="24" viewBox="0 0 24 24" fill="none" xmlns="http://www.w3.org/2000/svg">
<path d="M12.0033 20.895C13.2064 20.8951 14.3974 20.6539 15.5057 20.1858C16.614 19.7176 17.6173 19.032 18.456 18.1694C19.2948 17.3069 19.9522 16.2849 20.3892 15.1639C20.8262 14.0429 21.034 12.8457 21.0003 11.643C19.7416 12.5191 18.2301 12.9576 16.698 12.8911C15.1659 12.8246 13.698 12.2569 12.5199 11.2751C11.3418 10.2933 10.5188 8.95184 10.1772 7.45682C9.83562 5.9618 9.99445 4.39598 10.6293 3C8.38749 3.34547 6.35882 4.52466 4.94916 6.30167C3.53949 8.07867 2.85278 10.3224 3.02643 12.584C3.20008 14.8456 4.22127 16.9582 5.8857 18.4992C7.55012 20.0401 9.73502 20.8958 12.0033 20.895Z" stroke="#1E0518" stroke-width="1.5" stroke-linecap="round" stroke-linejoin="round"/>
</svg>
